<svg width="24" height="25" viewBox="0 0 24 25" fill="none" xmlns="http://www.w3.org/2000/svg">
<path d="M17 2.06262H7C4.23858 2.06262 2 4.30731 2 7.07628V17.1036C2 19.8726 4.23858 22.1173 7 22.1173H17C19.7614 22.1173 22 19.8726 22 17.1036V7.07628C22 4.30731 19.7614 2.06262 17 2.06262Z" stroke="white" stroke-width="2" stroke-linecap="round" stroke-linejoin="round"/>
<path d="M16 11.4582C16.1234 12.2928 15.9812 13.1451 15.5937 13.8939C15.2062 14.6427 14.5931 15.25 13.8416 15.6293C13.0901 16.0086 12.2384 16.1406 11.4077 16.0066C10.5771 15.8725 9.80971 15.4793 9.21479 14.8827C8.61987 14.2862 8.22768 13.5167 8.09402 12.6838C7.96035 11.8509 8.09202 10.9969 8.47028 10.2433C8.84854 9.48973 9.45414 8.87494 10.2009 8.48638C10.9477 8.09783 11.7977 7.95528 12.63 8.07903C13.4789 8.20526 14.2648 8.60192 14.8716 9.21042C15.4785 9.81892 15.8741 10.607 16 11.4582Z" stroke="white" stroke-width="2" stroke-linecap="round" stroke-linejoin="round"/>
<path d="M17.5 6.57483H17.51" stroke="white" stroke-width="2" stroke-linecap="round" stroke-linejoin="round"/>
</svg>
