<svg width="24" height="25" viewBox="0 0 24 25" fill="none" xmlns="http://www.w3.org/2000/svg">
<path d="M22.0001 17.0234V20.0316C22.0012 20.3108 21.9441 20.5872 21.8326 20.8431C21.721 21.099 21.5574 21.3287 21.3521 21.5175C21.1469 21.7063 20.9046 21.85 20.6408 21.9395C20.377 22.0289 20.0974 22.0622 19.8201 22.037C16.7429 21.7018 13.7871 20.6474 11.1901 18.9586C8.77388 17.4191 6.72539 15.365 5.19006 12.9422C3.50003 10.3263 2.4483 7.34799 2.12006 4.24855C2.09507 3.97127 2.12793 3.6918 2.21656 3.42794C2.30518 3.16409 2.44763 2.92163 2.63482 2.716C2.82202 2.51037 3.04986 2.34608 3.30385 2.23359C3.55783 2.12109 3.8324 2.06286 4.11006 2.0626H7.11006C7.59536 2.05781 8.06585 2.23013 8.43382 2.54745C8.80179 2.86477 9.04213 3.30543 9.11005 3.7873C9.23668 4.74999 9.47151 5.69522 9.81006 6.60498C9.9446 6.96388 9.97372 7.35393 9.89396 7.72892C9.81421 8.10391 9.62892 8.44811 9.36005 8.72074L8.09006 9.99421C9.51361 12.5046 11.5865 14.5832 14.0901 16.0106L15.3601 14.7371C15.6319 14.4675 15.9752 14.2817 16.3492 14.2018C16.7231 14.1218 17.1121 14.151 17.4701 14.2859C18.3773 14.6254 19.32 14.8608 20.2801 14.9878C20.7658 15.0565 21.2095 15.3019 21.5266 15.6772C21.8437 16.0525 22.0122 16.5316 22.0001 17.0234Z" stroke="white" stroke-width="1.5" stroke-linecap="round" stroke-linejoin="round"/>
</svg>
