<svg width="24" height="25" viewBox="0 0 24 25" fill="none" xmlns="http://www.w3.org/2000/svg">
<path d="M12 2.23535C6.477 2.23535 2 6.71235 2 12.2354C2 17.7584 6.477 22.2354 12 22.2354C17.523 22.2354 22 17.7584 22 12.2354C22 6.71235 17.523 2.23535 12 2.23535Z" stroke="white" stroke-linecap="round" stroke-linejoin="round"/>
<path d="M4.271 18.5814C4.271 18.5814 6.5 15.7354 12 15.7354C17.5 15.7354 19.73 18.5814 19.73 18.5814" stroke="white" stroke-linecap="round" stroke-linejoin="round"/>
<path d="M12 12.2354C12.7956 12.2354 13.5587 11.9193 14.1213 11.3567C14.6839 10.7941 15 10.031 15 9.23535C15 8.4397 14.6839 7.67664 14.1213 7.11403C13.5587 6.55142 12.7956 6.23535 12 6.23535C11.2044 6.23535 10.4413 6.55142 9.87868 7.11403C9.31607 7.67664 9 8.4397 9 9.23535C9 10.031 9.31607 10.7941 9.87868 11.3567C10.4413 11.9193 11.2044 12.2354 12 12.2354V12.2354Z" stroke="white" stroke-linecap="round" stroke-linejoin="round"/>
</svg>
