<svg width="14" height="15" viewBox="0 0 14 15" fill="none" xmlns="http://www.w3.org/2000/svg">
<g clip-path="url(#clip0_4_200)">
<path d="M5.12138 12.9133C5.43436 12.9133 5.68808 12.6596 5.68808 12.3466C5.68808 12.0336 5.43436 11.7799 5.12138 11.7799C4.80841 11.7799 4.55469 12.0336 4.55469 12.3466C4.55469 12.6596 4.80841 12.9133 5.12138 12.9133Z" stroke="white" stroke-width="2" stroke-linecap="round" stroke-linejoin="round"/>
<path d="M11.355 12.9133C11.668 12.9133 11.9217 12.6596 11.9217 12.3466C11.9217 12.0336 11.668 11.7799 11.355 11.7799C11.042 11.7799 10.7883 12.0336 10.7883 12.3466C10.7883 12.6596 11.042 12.9133 11.355 12.9133Z" stroke="white" stroke-width="2" stroke-linecap="round" stroke-linejoin="round"/>
<path d="M0.587769 1.01257H2.85456L4.3733 8.60064C4.42512 8.86155 4.56706 9.09591 4.77427 9.26271C4.98147 9.42951 5.24074 9.51812 5.5067 9.51302H11.015C11.2809 9.51812 11.5402 9.42951 11.7474 9.26271C11.9546 9.09591 12.0966 8.86155 12.1484 8.60064L13.0551 3.84606H3.42125" stroke="white" stroke-width="2" stroke-linecap="round" stroke-linejoin="round"/>
</g>
<defs>
<clipPath id="clip0_4_200">
<rect width="13.6007" height="13.6007" fill="white" transform="translate(0.0211182 0.445923)"/>
</clipPath>
</defs>
</svg>
